<svg width="64" height="64" viewBox="0 0 64 64" fill="none" xmlns="http://www.w3.org/2000/svg">
<path d="M17.8457 0C9.53532 0 2.82325 8.73026 2.58923 19.6316L0.239005 23.9474C-0.154358 24.6908 -0.034855 25.7171 0.517845 26.2632C1.16017 26.9013 1.84233 27.3947 2.54939 27.7895V34.6316C1.02573 35.7961 0 37.9276 0 40.4211C0 42.9145 1.02573 45.0461 2.54939 46.2105V55.5789C2.54939 60.2039 5.42244 64 8.92287 64H54.8119C58.3123 64 61.1854 60.2039 61.1854 55.5789V46.2105C62.709 45.0461 63.7348 42.9145 63.7348 40.4211C63.7348 37.9276 62.709 35.7961 61.1854 34.6316V27.9474C61.997 27.5395 62.7688 26.9868 63.4958 26.2632C63.7647 25.9934 63.9439 25.5921 63.9887 25.1447C64.0335 24.6974 63.9439 24.25 63.7348 23.8947L61.1456 19.5789C60.8866 8.70395 54.1845 0 45.889 0H17.8457ZM17.8457 3.36842H45.889C52.5513 3.36842 57.9289 9.96053 58.5563 18.5263H5.17845C5.80584 9.96053 11.1835 3.36842 17.8457 3.36842ZM22.3072 5.05263C21.2516 5.05263 20.3951 6.18421 20.3951 7.57895C20.3951 8.97368 21.2516 10.1053 22.3072 10.1053C23.3628 10.1053 24.2192 8.97368 24.2192 7.57895C24.2192 6.18421 23.3628 5.05263 22.3072 5.05263ZM15.9337 6.73684C14.8781 6.73684 14.0217 7.86842 14.0217 9.26316C14.0217 10.6579 14.8781 11.7895 15.9337 11.7895C16.9893 11.7895 17.8457 10.6579 17.8457 9.26316C17.8457 7.86842 16.9893 6.73684 15.9337 6.73684ZM19.7578 11.7895C18.7022 11.7895 17.8457 12.9211 17.8457 14.3158C17.8457 15.7105 18.7022 16.8421 19.7578 16.8421C20.8134 16.8421 21.6698 15.7105 21.6698 14.3158C21.6698 12.9211 20.8134 11.7895 19.7578 11.7895ZM4.50127 21.8947H59.2733L60.787 24.4211C58.3671 26.0329 55.5538 25.8158 53.2982 23.5789C52.8899 23.1776 52.3422 23.1382 51.904 23.4737L49.8725 25C49.8575 25 49.8476 25 49.8326 25C47.4077 26.8947 44.6193 26.8618 42.3438 25C42.3289 25 42.3189 25 42.304 25L40.2724 23.4737C39.9039 23.1974 39.4558 23.1776 39.0774 23.4211L35.2931 25.9474H35.2533C33.1969 27.2171 30.8168 27.2171 28.7603 25.9474H28.7205L24.9362 23.4211C24.5578 23.1776 24.1097 23.1974 23.7412 23.4737L21.6698 25C19.2449 26.8947 16.4565 26.8618 14.181 25C14.1661 25 14.1561 25 14.1412 25L12.1096 23.4737C11.6714 23.1382 11.1237 23.1776 10.7154 23.5789C8.43988 25.8355 5.58177 26.0263 3.1469 24.3684L4.50127 21.8947ZM11.4324 26.7895L12.8665 27.8421L12.8266 27.8947C15.9038 30.4145 19.7628 30.3816 22.9445 27.8947L24.3786 26.8421L27.6051 28.9474C27.6201 28.9671 27.63 28.9803 27.645 29C30.4085 30.7303 33.6052 30.7303 36.3687 29C36.3836 28.9803 36.3936 28.9671 36.4085 28.9474L39.6351 26.8421L41.0293 27.8947H41.0691C44.1413 30.3882 47.9355 30.3684 51.1073 27.8947L52.5414 26.7895C54.4086 28.3092 56.5497 28.9276 58.636 28.6842V33.6842H5.09878V28.6842C7.25979 29.0197 9.48553 28.375 11.4324 26.7895ZM5.09878 37.0526H58.636C60.1547 37.0526 61.1854 38.4145 61.1854 40.4211C61.1854 42.4276 60.1547 43.7895 58.636 43.7895H5.09878C3.5801 43.7895 2.54939 42.4276 2.54939 40.4211C2.54939 38.4145 3.5801 37.0526 5.09878 37.0526ZM5.09878 47.1579H58.636V55.5789C58.636 58.3684 56.9231 60.6316 54.8119 60.6316H8.92287C6.81165 60.6316 5.09878 58.3684 5.09878 55.5789V47.1579Z" fill="#FF8000"/>
</svg>
