<svg width="230" height="197" viewBox="0 0 230 197" fill="none" xmlns="http://www.w3.org/2000/svg">
<path id="Vector" d="M53.6367 0.880253C64.1035 -0.8717 74.6602 0.0267389 84.4531 3.26111L106.824 38.0756L72.9531 71.9467C72.2793 72.6205 71.875 73.5639 71.9199 74.5521C71.9648 75.5404 72.3691 76.4389 73.0879 77.1127L123.4 123.831C124.703 125.044 126.725 125.134 128.117 123.966C129.51 122.798 129.824 120.822 128.881 119.294L101.748 75.226L142.492 41.265C143.66 40.3217 144.064 38.7045 143.57 37.3119L133.328 8.83143C146.131 1.32947 161.359 -1.59045 176.318 0.925176C207.314 6.04627 230 32.8197 230 64.2201V66.8256C230 85.4681 222.273 103.302 208.617 116.015L127.443 191.798C124.074 194.943 119.627 196.695 115 196.695C110.373 196.695 105.926 194.943 102.557 191.798L21.3828 116.015C7.72656 103.302 0 85.4681 0 66.8256V64.2201C0 32.8197 22.6855 6.04627 53.6367 0.880253Z" fill="black" fill-opacity="0.25"/>
</svg>
