<svg width="66" height="25" viewBox="0 0 66 25" fill="none" xmlns="http://www.w3.org/2000/svg">
<path d="M59.576 15.516C59.2493 15.516 58.9367 15.558 58.638 15.642C58.3393 15.7167 58.0267 15.8427 57.7 16.02L57.224 14.718C57.5693 14.522 57.9613 14.368 58.4 14.256C58.848 14.1347 59.3053 14.074 59.772 14.074C60.332 14.074 60.794 14.1533 61.158 14.312C61.522 14.4613 61.8113 14.6527 62.026 14.886C62.2407 15.1193 62.39 15.376 62.474 15.656C62.558 15.936 62.6 16.2067 62.6 16.468C62.6 16.7853 62.5393 17.07 62.418 17.322C62.306 17.574 62.1613 17.8073 61.984 18.022C61.8067 18.2367 61.6153 18.442 61.41 18.638C61.2047 18.8247 61.0133 19.0207 60.836 19.226C60.6587 19.422 60.5093 19.632 60.388 19.856C60.276 20.08 60.22 20.332 60.22 20.612C60.22 20.6587 60.22 20.7147 60.22 20.78C60.22 20.836 60.2247 20.892 60.234 20.948H58.778C58.7593 20.8547 58.7453 20.7567 58.736 20.654C58.7267 20.542 58.722 20.4393 58.722 20.346C58.722 20.038 58.7733 19.7627 58.876 19.52C58.9787 19.2773 59.1093 19.0533 59.268 18.848C59.4267 18.6427 59.5947 18.4513 59.772 18.274C59.9587 18.0967 60.1313 17.9193 60.29 17.742C60.4487 17.5647 60.5793 17.3827 60.682 17.196C60.7847 17.0093 60.836 16.804 60.836 16.58C60.836 16.272 60.7287 16.02 60.514 15.824C60.3087 15.6187 59.996 15.516 59.576 15.516ZM60.668 23.076C60.668 23.4027 60.5607 23.6687 60.346 23.874C60.1313 24.0793 59.8653 24.182 59.548 24.182C59.24 24.182 58.974 24.0793 58.75 23.874C58.5353 23.6687 58.428 23.4027 58.428 23.076C58.428 22.7493 58.5353 22.4833 58.75 22.278C58.974 22.0633 59.24 21.956 59.548 21.956C59.8653 21.956 60.1313 22.0633 60.346 22.278C60.5607 22.4833 60.668 22.7493 60.668 23.076Z" fill="#FF8000"/>
<path d="M16.95 7.513C17.2014 7.44367 17.5394 7.36567 17.964 7.279C18.3887 7.19233 18.9087 7.149 19.524 7.149C20.0354 7.149 20.46 7.22267 20.798 7.37C21.1447 7.51733 21.4177 7.72967 21.617 8.007C21.825 8.27567 21.9724 8.60067 22.059 8.982C22.1457 9.36333 22.189 9.78367 22.189 10.243V14H21.344V10.516C21.344 10.0393 21.3094 9.63633 21.24 9.307C21.1794 8.97767 21.071 8.709 20.915 8.501C20.7677 8.293 20.5684 8.14567 20.317 8.059C20.0744 7.96367 19.7667 7.916 19.394 7.916C18.9954 7.916 18.6487 7.93767 18.354 7.981C18.068 8.02433 17.8817 8.06333 17.795 8.098V14H16.95V7.513ZM29.6944 13.792C29.4431 13.8787 29.1224 13.961 28.7324 14.039C28.3424 14.117 27.8484 14.156 27.2504 14.156C26.7564 14.156 26.3057 14.078 25.8984 13.922C25.4997 13.7573 25.1531 13.5233 24.8584 13.22C24.5724 12.9167 24.3471 12.5483 24.1824 12.115C24.0264 11.6817 23.9484 11.192 23.9484 10.646C23.9484 10.1347 24.0134 9.66667 24.1434 9.242C24.2821 8.80867 24.4814 8.436 24.7414 8.124C25.0014 7.812 25.3177 7.56933 25.6904 7.396C26.0717 7.22267 26.5051 7.136 26.9904 7.136C27.4324 7.136 27.8137 7.201 28.1344 7.331C28.4637 7.45233 28.7021 7.56933 28.8494 7.682V4.068L29.6944 3.912V13.792ZM28.8494 8.501C28.7714 8.44033 28.6717 8.37533 28.5504 8.306C28.4377 8.23667 28.3034 8.17167 28.1474 8.111C27.9914 8.05033 27.8224 8.00267 27.6404 7.968C27.4584 7.92467 27.2677 7.903 27.0684 7.903C26.6524 7.903 26.3014 7.97667 26.0154 8.124C25.7381 8.27133 25.5127 8.47067 25.3394 8.722C25.1661 8.96467 25.0404 9.255 24.9624 9.593C24.8844 9.92233 24.8454 10.2733 24.8454 10.646C24.8454 11.53 25.0664 12.2103 25.5084 12.687C25.9504 13.155 26.5354 13.389 27.2634 13.389C27.6794 13.389 28.0131 13.3717 28.2644 13.337C28.5244 13.2937 28.7194 13.2503 28.8494 13.207V8.501ZM31.5275 10.633C31.5275 10.0437 31.6098 9.53233 31.7745 9.099C31.9478 8.657 32.1688 8.28867 32.4375 7.994C32.7148 7.69933 33.0268 7.48267 33.3735 7.344C33.7288 7.19667 34.0928 7.123 34.4655 7.123C35.2888 7.123 35.9432 7.39167 36.4285 7.929C36.9225 8.46633 37.1695 9.294 37.1695 10.412C37.1695 10.4813 37.1652 10.5507 37.1565 10.62C37.1565 10.6893 37.1522 10.7543 37.1435 10.815H32.4245C32.4505 11.6383 32.6542 12.271 33.0355 12.713C33.4168 13.155 34.0235 13.376 34.8555 13.376C35.3148 13.376 35.6788 13.3327 35.9475 13.246C36.2162 13.1593 36.4112 13.0857 36.5325 13.025L36.6885 13.753C36.5672 13.8223 36.3375 13.9047 35.9995 14C35.6702 14.0953 35.2802 14.143 34.8295 14.143C34.2402 14.143 33.7375 14.0563 33.3215 13.883C32.9055 13.7097 32.5632 13.467 32.2945 13.155C32.0258 12.843 31.8308 12.4747 31.7095 12.05C31.5882 11.6167 31.5275 11.1443 31.5275 10.633ZM36.2985 10.1C36.2812 9.398 36.1165 8.852 35.8045 8.462C35.4925 8.072 35.0505 7.877 34.4785 7.877C34.1752 7.877 33.9022 7.93767 33.6595 8.059C33.4255 8.18033 33.2175 8.345 33.0355 8.553C32.8622 8.75233 32.7235 8.98633 32.6195 9.255C32.5242 9.52367 32.4678 9.80533 32.4505 10.1H36.2985Z" fill="black"/>
<path d="M45.0225 4.81775V5.5995H42.081V14H41.18V5.5995H38.2385V4.81775H45.0225ZM45.4055 10.5682C45.4055 9.96758 45.4894 9.44642 45.6573 9.00475C45.8339 8.55425 46.0592 8.17883 46.333 7.8785C46.6157 7.57817 46.9337 7.35733 47.287 7.216C47.6492 7.06583 48.0202 6.99075 48.4 6.99075C49.2392 6.99075 49.9061 7.26458 50.4008 7.81225C50.9043 8.35992 51.156 9.2035 51.156 10.343C51.156 10.4137 51.1516 10.4843 51.1428 10.555C51.1428 10.6257 51.1383 10.6919 51.1295 10.7537H46.3198C46.3463 11.5929 46.5538 12.2377 46.9425 12.6882C47.3312 13.1387 47.9495 13.364 48.7975 13.364C49.2657 13.364 49.6367 13.3198 49.9105 13.2315C50.1843 13.1432 50.3831 13.0681 50.5068 13.0062L50.6658 13.7482C50.5421 13.8189 50.308 13.9028 49.9635 14C49.6278 14.0972 49.2303 14.1458 48.771 14.1458C48.1703 14.1458 47.658 14.0574 47.234 13.8807C46.81 13.7041 46.4611 13.4567 46.1873 13.1387C45.9134 12.8207 45.7147 12.4453 45.591 12.0125C45.4673 11.5708 45.4055 11.0894 45.4055 10.5682ZM50.2683 10.025C50.2506 9.3095 50.0828 8.753 49.7648 8.3555C49.4468 7.958 48.9963 7.75925 48.4133 7.75925C48.1041 7.75925 47.8258 7.82108 47.5785 7.94475C47.34 8.06842 47.128 8.23625 46.9425 8.44825C46.7658 8.65142 46.6245 8.88992 46.5185 9.16375C46.4213 9.43758 46.3639 9.72467 46.3463 10.025H50.2683ZM53.0753 7.38825C53.3315 7.31758 53.6627 7.23808 54.069 7.14975C54.4842 7.06142 55.0186 7.01725 55.6723 7.01725C56.538 7.01725 57.1651 7.269 57.5538 7.7725C57.598 7.73717 57.6819 7.67975 57.8055 7.60025C57.938 7.51192 58.1015 7.42358 58.2958 7.33525C58.4901 7.24692 58.7154 7.17183 58.9715 7.11C59.2365 7.04817 59.528 7.01725 59.846 7.01725C60.3672 7.01725 60.7868 7.09675 61.1048 7.25575C61.4316 7.40592 61.6834 7.62233 61.86 7.905C62.0367 8.17883 62.156 8.51008 62.2178 8.89875C62.2796 9.28742 62.3105 9.71142 62.3105 10.1707V14H61.4493V10.449C61.4493 9.9985 61.4272 9.60983 61.383 9.283C61.3477 8.94733 61.2682 8.6735 61.1445 8.4615C61.0297 8.24067 60.8619 8.07725 60.641 7.97125C60.4202 7.85642 60.1331 7.799 59.7798 7.799C59.5148 7.799 59.2719 7.8255 59.051 7.8785C58.839 7.92267 58.6535 7.98008 58.4945 8.05075C58.3355 8.12142 58.203 8.19208 58.097 8.26275C57.9999 8.33342 57.9292 8.38642 57.885 8.42175C57.9645 8.65142 58.022 8.912 58.0573 9.2035C58.1015 9.48617 58.1235 9.7865 58.1235 10.1045V14H57.2623V10.449C57.2623 9.9985 57.2402 9.60983 57.196 9.283C57.1607 8.94733 57.0812 8.6735 56.9575 8.4615C56.8339 8.24067 56.6572 8.07725 56.4275 7.97125C56.2067 7.85642 55.9108 7.799 55.5398 7.799C55.1246 7.799 54.7713 7.82108 54.4798 7.86525C54.1971 7.90942 54.016 7.94917 53.9365 7.9845V14H53.0753V7.38825Z" fill="black"/>
<path d="M20.309 15.398C20.7057 15.2847 21.2213 15.177 21.856 15.075C22.4907 14.973 23.1933 14.922 23.964 14.922C24.6893 14.922 25.2957 15.024 25.783 15.228C26.2703 15.4207 26.6557 15.6983 26.939 16.061C27.2337 16.4123 27.4377 16.843 27.551 17.353C27.6757 17.8517 27.738 18.4013 27.738 19.002V24H25.681V19.325C25.681 18.849 25.647 18.4467 25.579 18.118C25.5223 17.778 25.4203 17.506 25.273 17.302C25.137 17.0867 24.9443 16.9337 24.695 16.843C24.457 16.741 24.1623 16.69 23.811 16.69C23.5503 16.69 23.2783 16.707 22.995 16.741C22.7117 16.775 22.502 16.8033 22.366 16.826V24H20.309V15.398ZM29.7603 19.563C29.7603 18.9057 29.8623 18.2937 30.0663 17.727C30.2703 17.149 30.5593 16.6503 30.9333 16.231C31.3187 15.8117 31.7833 15.483 32.3273 15.245C32.8713 15.007 33.4833 14.888 34.1633 14.888C35.002 14.888 35.7953 15.041 36.5433 15.347L36.1013 17.03C35.8633 16.928 35.5913 16.843 35.2853 16.775C34.9907 16.707 34.6733 16.673 34.3333 16.673C33.5287 16.673 32.9167 16.928 32.4973 17.438C32.078 17.9367 31.8683 18.645 31.8683 19.563C31.8683 20.447 32.0667 21.1497 32.4633 21.671C32.86 22.181 33.5287 22.436 34.4693 22.436C34.8207 22.436 35.1663 22.402 35.5063 22.334C35.8463 22.266 36.141 22.181 36.3903 22.079L36.6793 23.779C36.4527 23.8923 36.107 23.9943 35.6423 24.085C35.189 24.1757 34.7187 24.221 34.2313 24.221C33.472 24.221 32.809 24.1077 32.2423 23.881C31.687 23.643 31.2223 23.32 30.8483 22.912C30.4857 22.4927 30.2137 21.9997 30.0323 21.433C29.851 20.855 29.7603 20.2317 29.7603 19.563ZM38.2719 24V11.148L40.3289 10.808V15.211C40.5556 15.1317 40.8162 15.0637 41.1109 15.007C41.4169 14.9503 41.7172 14.922 42.0119 14.922C42.7259 14.922 43.3152 15.024 43.7799 15.228C44.2559 15.4207 44.6356 15.6983 44.9189 16.061C45.2022 16.4123 45.4006 16.8373 45.5139 17.336C45.6386 17.8347 45.7009 18.39 45.7009 19.002V24H43.6439V19.325C43.6439 18.849 43.6099 18.4467 43.5419 18.118C43.4852 17.778 43.3832 17.506 43.2359 17.302C43.0999 17.0867 42.9129 16.9337 42.6749 16.843C42.4369 16.741 42.1422 16.69 41.7909 16.69C41.5189 16.69 41.2412 16.7183 40.9579 16.775C40.6746 16.8317 40.4649 16.8827 40.3289 16.928V24H38.2719ZM47.6734 19.597C47.6734 18.815 47.7868 18.1293 48.0134 17.54C48.2514 16.9507 48.5631 16.4633 48.9484 16.078C49.3338 15.6813 49.7758 15.3867 50.2744 15.194C50.7731 14.99 51.2831 14.888 51.8044 14.888C53.0284 14.888 53.9804 15.2677 54.6604 16.027C55.3518 16.7863 55.6974 17.9197 55.6974 19.427C55.6974 19.5403 55.6918 19.6707 55.6804 19.818C55.6804 19.954 55.6748 20.0787 55.6634 20.192H49.7984C49.8551 20.906 50.1044 21.4613 50.5464 21.858C50.9998 22.2433 51.6514 22.436 52.5014 22.436C53.0001 22.436 53.4534 22.3907 53.8614 22.3C54.2808 22.2093 54.6094 22.113 54.8474 22.011L55.1194 23.694C55.0061 23.7507 54.8474 23.813 54.6434 23.881C54.4508 23.9377 54.2241 23.9887 53.9634 24.034C53.7141 24.0907 53.4421 24.136 53.1474 24.17C52.8528 24.204 52.5524 24.221 52.2464 24.221C51.4644 24.221 50.7844 24.1077 50.2064 23.881C49.6284 23.643 49.1524 23.32 48.7784 22.912C48.4044 22.4927 48.1268 22.0053 47.9454 21.45C47.7641 20.8833 47.6734 20.2657 47.6734 19.597ZM53.6404 18.679C53.6404 18.3957 53.6008 18.1293 53.5214 17.88C53.4421 17.6193 53.3231 17.3983 53.1644 17.217C53.0171 17.0243 52.8301 16.877 52.6034 16.775C52.3881 16.6617 52.1274 16.605 51.8214 16.605C51.5041 16.605 51.2264 16.6673 50.9884 16.792C50.7504 16.9053 50.5464 17.0583 50.3764 17.251C50.2178 17.4437 50.0931 17.6647 50.0024 17.914C49.9118 18.1633 49.8494 18.4183 49.8154 18.679H53.6404Z" fill="#FF8000"/>
<path fill-rule="evenodd" clip-rule="evenodd" d="M13.786 12.7522C12.7795 13.5708 11.548 14.0523 10.218 14.0523C6.81849 14.0523 4.06265 10.9066 4.06265 7.02616C4.06265 3.14572 6.81849 0 10.218 0C13.6175 0 16.3733 3.14572 16.3733 7.02616C16.3733 8.96638 15.6844 10.7229 14.5705 11.9944L24 23L23 24L13.786 12.7522ZM10.218 13.2257C13.2176 13.2257 15.6492 10.4501 15.6492 7.02616C15.6492 3.60224 13.2176 0.826607 10.218 0.826607C7.21844 0.826607 4.78681 3.60224 4.78681 7.02616C4.78681 10.4501 7.21844 13.2257 10.218 13.2257Z" fill="black"/>
<path d="M10.42 21.82V24H1.66V10.14H4.18V21.82H10.42ZM15.1206 22.555C15.7553 22.555 16.2369 22.521 16.5656 22.453V20.175C16.4523 20.141 16.2879 20.107 16.0726 20.073C15.8573 20.039 15.6193 20.022 15.3586 20.022C15.1319 20.022 14.8996 20.039 14.6616 20.073C14.4349 20.107 14.2253 20.1693 14.0326 20.26C13.8513 20.3507 13.7039 20.481 13.5906 20.651C13.4773 20.8097 13.4206 21.0137 13.4206 21.263C13.4206 21.7503 13.5736 22.0903 13.8796 22.283C14.1856 22.4643 14.5993 22.555 15.1206 22.555ZM14.9506 14.888C15.6306 14.888 16.2029 14.973 16.6676 15.143C17.1323 15.313 17.5006 15.551 17.7726 15.857C18.0559 16.163 18.2543 16.537 18.3676 16.979C18.4923 17.4097 18.5546 17.8857 18.5546 18.407V23.796C18.2373 23.864 17.7556 23.9433 17.1096 24.034C16.4749 24.136 15.7553 24.187 14.9506 24.187C14.4179 24.187 13.9306 24.136 13.4886 24.034C13.0466 23.932 12.6669 23.7677 12.3496 23.541C12.0436 23.3143 11.7999 23.0197 11.6186 22.657C11.4486 22.2943 11.3636 21.8467 11.3636 21.314C11.3636 20.804 11.4599 20.3733 11.6526 20.022C11.8566 19.6707 12.1286 19.3873 12.4686 19.172C12.8086 18.9453 13.1996 18.7867 13.6416 18.696C14.0949 18.594 14.5653 18.543 15.0526 18.543C15.2793 18.543 15.5173 18.56 15.7666 18.594C16.0159 18.6167 16.2823 18.662 16.5656 18.73V18.39C16.5656 18.152 16.5373 17.9253 16.4806 17.71C16.4239 17.4947 16.3219 17.3077 16.1746 17.149C16.0386 16.979 15.8516 16.8487 15.6136 16.758C15.3869 16.6673 15.0979 16.622 14.7466 16.622C14.2706 16.622 13.8343 16.656 13.4376 16.724C13.0409 16.792 12.7179 16.8713 12.4686 16.962L12.2136 15.296C12.4743 15.2053 12.8539 15.1147 13.3526 15.024C13.8513 14.9333 14.3839 14.888 14.9506 14.888Z" fill="#FF8000"/>
</svg>
